<svg id="visual" viewBox="0 0 900 675" width="900" height="675" xmlns="http://www.w3.org/2000/svg" xmlns:xlink="http://www.w3.org/1999/xlink" version="1.1"><rect x="0" y="0" width="900" height="675" fill="#00101c"></rect><defs><linearGradient id="grad1_0" x1="25%" y1="0%" x2="100%" y2="100%"><stop offset="23.333333333333336%" stop-color="#0ee69e" stop-opacity="1"></stop><stop offset="76.66666666666666%" stop-color="#0ee69e" stop-opacity="1"></stop></linearGradient></defs><defs><linearGradient id="grad1_1" x1="25%" y1="0%" x2="100%" y2="100%"><stop offset="23.333333333333336%" stop-color="#0ee69e" stop-opacity="1"></stop><stop offset="76.66666666666666%" stop-color="#00c6a0" stop-opacity="1"></stop></linearGradient></defs><defs><linearGradient id="grad1_2" x1="25%" y1="0%" x2="100%" y2="100%"><stop offset="23.333333333333336%" stop-color="#00a59b" stop-opacity="1"></stop><stop offset="76.66666666666666%" stop-color="#00c6a0" stop-opacity="1"></stop></linearGradient></defs><defs><linearGradient id="grad1_3" x1="25%" y1="0%" x2="100%" y2="100%"><stop offset="23.333333333333336%" stop-color="#00a59b" stop-opacity="1"></stop><stop offset="76.66666666666666%" stop-color="#00848e" stop-opacity="1"></stop></linearGradient></defs><defs><linearGradient id="grad1_4" x1="25%" y1="0%" x2="100%" y2="100%"><stop offset="23.333333333333336%" stop-color="#006478" stop-opacity="1"></stop><stop offset="76.66666666666666%" stop-color="#00848e" stop-opacity="1"></stop></linearGradient></defs><defs><linearGradient id="grad1_5" x1="25%" y1="0%" x2="100%" y2="100%"><stop offset="23.333333333333336%" stop-color="#006478" stop-opacity="1"></stop><stop offset="76.66666666666666%" stop-color="#00465c" stop-opacity="1"></stop></linearGradient></defs><defs><linearGradient id="grad1_6" x1="25%" y1="0%" x2="100%" y2="100%"><stop offset="23.333333333333336%" stop-color="#002a3d" stop-opacity="1"></stop><stop offset="76.66666666666666%" stop-color="#00465c" stop-opacity="1"></stop></linearGradient></defs><defs><linearGradient id="grad1_7" x1="25%" y1="0%" x2="100%" y2="100%"><stop offset="23.333333333333336%" stop-color="#002a3d" stop-opacity="1"></stop><stop offset="76.66666666666666%" stop-color="#00101c" stop-opacity="1"></stop></linearGradient></defs><defs><linearGradient id="grad2_0" x1="0%" y1="0%" x2="75%" y2="100%"><stop offset="23.333333333333336%" stop-color="#0ee69e" stop-opacity="1"></stop><stop offset="76.66666666666666%" stop-color="#0ee69e" stop-opacity="1"></stop></linearGradient></defs><defs><linearGradient id="grad2_1" x1="0%" y1="0%" x2="75%" y2="100%"><stop offset="23.333333333333336%" stop-color="#00c6a0" stop-opacity="1"></stop><stop offset="76.66666666666666%" stop-color="#0ee69e" stop-opacity="1"></stop></linearGradient></defs><defs><linearGradient id="grad2_2" x1="0%" y1="0%" x2="75%" y2="100%"><stop offset="23.333333333333336%" stop-color="#00c6a0" stop-opacity="1"></stop><stop offset="76.66666666666666%" stop-color="#00a59b" stop-opacity="1"></stop></linearGradient></defs><defs><linearGradient id="grad2_3" x1="0%" y1="0%" x2="75%" y2="100%"><stop offset="23.333333333333336%" stop-color="#00848e" stop-opacity="1"></stop><stop offset="76.66666666666666%" stop-color="#00a59b" stop-opacity="1"></stop></linearGradient></defs><defs><linearGradient id="grad2_4" x1="0%" y1="0%" x2="75%" y2="100%"><stop offset="23.333333333333336%" stop-color="#00848e" stop-opacity="1"></stop><stop offset="76.66666666666666%" stop-color="#006478" stop-opacity="1"></stop></linearGradient></defs><defs><linearGradient id="grad2_5" x1="0%" y1="0%" x2="75%" y2="100%"><stop offset="23.333333333333336%" stop-color="#00465c" stop-opacity="1"></stop><stop offset="76.66666666666666%" stop-color="#006478" stop-opacity="1"></stop></linearGradient></defs><defs><linearGradient id="grad2_6" x1="0%" y1="0%" x2="75%" y2="100%"><stop offset="23.333333333333336%" stop-color="#00465c" stop-opacity="1"></stop><stop offset="76.66666666666666%" stop-color="#002a3d" stop-opacity="1"></stop></linearGradient></defs><defs><linearGradient id="grad2_7" x1="0%" y1="0%" x2="75%" y2="100%"><stop offset="23.333333333333336%" stop-color="#00101c" stop-opacity="1"></stop><stop offset="76.66666666666666%" stop-color="#002a3d" stop-opacity="1"></stop></linearGradient></defs><g transform="translate(900, 0)"><path d="M0 562.5C-69.5 551.7 -139 540.9 -214.7 518.3C-290.3 495.7 -372.1 461.3 -397.7 397.7C-423.4 334.2 -393 241.4 -411.1 170.3C-429.2 99.1 -495.9 49.6 -562.5 0L0 0Z" fill="#021d2c"></path><path d="M0 492.2C-60.8 482.7 -121.7 473.3 -187.8 453.5C-254 433.7 -325.6 403.6 -348 348C-370.5 292.4 -343.9 211.3 -359.7 149C-375.6 86.7 -433.9 43.4 -492.2 0L0 0Z" fill="#00384d"></path><path d="M0 421.9C-52.1 413.8 -104.3 405.7 -161 388.7C-217.7 371.8 -279.1 346 -298.3 298.3C-317.6 250.6 -294.8 181.1 -308.3 127.7C-321.9 74.4 -371.9 37.2 -421.9 0L0 0Z" fill="#00556b"></path><path d="M0 351.6C-43.5 344.8 -86.9 338.1 -134.2 323.9C-181.5 309.8 -232.5 288.3 -248.6 248.6C-264.6 208.9 -245.6 150.9 -257 106.4C-268.3 62 -309.9 31 -351.6 0L0 0Z" fill="#007484"></path><path d="M0 281.3C-34.8 275.8 -69.5 270.4 -107.3 259.1C-145.2 247.8 -186 230.7 -198.9 198.9C-211.7 167.1 -196.5 120.7 -205.6 85.1C-214.6 49.6 -247.9 24.8 -281.2 0L0 0Z" fill="#009495"></path><path d="M0 210.9C-26.1 206.9 -52.1 202.8 -80.5 194.4C-108.9 185.9 -139.5 173 -149.2 149.2C-158.8 125.3 -147.4 90.5 -154.2 63.9C-161 37.2 -186 18.6 -210.9 0L0 0Z" fill="#00b59f"></path><path d="M0 140.6C-17.4 137.9 -34.8 135.2 -53.7 129.6C-72.6 123.9 -93 115.3 -99.4 99.4C-105.9 83.5 -98.3 60.4 -102.8 42.6C-107.3 24.8 -124 12.4 -140.6 0L0 0Z" fill="#00d6a0"></path><path d="M0 70.3C-8.7 69 -17.4 67.6 -26.8 64.8C-36.3 62 -46.5 57.7 -49.7 49.7C-52.9 41.8 -49.1 30.2 -51.4 21.3C-53.7 12.4 -62 6.2 -70.3 0L0 0Z" fill="#0ee69e"></path></g><g transform="translate(0, 675)"><path d="M0 -562.5C43.4 -490.4 86.7 -418.3 167.6 -404.7C248.5 -391 367 -435.7 397.7 -397.7C428.5 -359.8 371.5 -239.3 384.3 -159.2C397.2 -79.1 479.8 -39.6 562.5 0L0 0Z" fill="#021d2c"></path><path d="M0 -492.2C37.9 -429.1 75.9 -366.1 146.7 -354.1C217.5 -342.1 321.1 -381.2 348 -348C374.9 -314.8 325.1 -209.4 336.3 -139.3C347.5 -69.2 419.9 -34.6 492.2 0L0 0Z" fill="#00384d"></path><path d="M0 -421.9C32.5 -367.8 65 -313.8 125.7 -303.5C186.4 -293.2 275.3 -326.8 298.3 -298.3C321.4 -269.9 278.6 -179.4 288.3 -119.4C297.9 -59.3 359.9 -29.7 421.9 0L0 0Z" fill="#00556b"></path><path d="M0 -351.6C27.1 -306.5 54.2 -261.5 104.8 -252.9C155.3 -244.4 229.4 -272.3 248.6 -248.6C267.8 -224.9 232.2 -149.5 240.2 -99.5C248.2 -49.5 299.9 -24.7 351.6 0L0 0Z" fill="#007484"></path><path d="M0 -281.2C21.7 -245.2 43.4 -209.2 83.8 -202.3C124.3 -195.5 183.5 -217.8 198.9 -198.9C214.2 -179.9 185.7 -119.6 192.2 -79.6C198.6 -39.6 239.9 -19.8 281.3 0L0 0Z" fill="#009495"></path><path d="M0 -210.9C16.3 -183.9 32.5 -156.9 62.9 -151.7C93.2 -146.6 137.6 -163.4 149.2 -149.2C160.7 -134.9 139.3 -89.7 144.1 -59.7C148.9 -29.7 179.9 -14.8 210.9 0L0 0Z" fill="#00b59f"></path><path d="M0 -140.6C10.8 -122.6 21.7 -104.6 41.9 -101.2C62.1 -97.7 91.8 -108.9 99.4 -99.4C107.1 -90 92.9 -59.8 96.1 -39.8C99.3 -19.8 120 -9.9 140.6 0L0 0Z" fill="#00d6a0"></path><path d="M0 -70.3C5.4 -61.3 10.8 -52.3 21 -50.6C31.1 -48.9 45.9 -54.5 49.7 -49.7C53.6 -45 46.4 -29.9 48 -19.9C49.6 -9.9 60 -4.9 70.3 0L0 0Z" fill="#0ee69e"></path></g></svg>